# xmcd CD database file
#
# Track frame offsets:
#	150
#	11939
#	23469
#	37067
#	46692
#	61139
#	71326
#	83118
#	94660
#	104145
#	119110
#	131428
#	143186
#	156757
#	170364
#	181909
#	198721
#	210991
#	221010
#	229220
#	240654
#	251401
#	264547
#	277805
#	290378
#	298814
#	308978
#	323946
#
# Disc length: 4425 seconds
#
# Revision: 0
# Processed by: cddbd v1.5.2PL0 Copyright (c) Steve Scherf et al.
# Submitted via: CDex 1.51
#
DISCID=9f11471c
DTITLE=Willie Nelson - Reflections - CD 1
DYEAR=2006
DGENRE=Country
TTITLE0=Is There Something On Your Mind
TTITLE1=Touch Me
TTITLE2=The Last Letter
TTITLE3=Half A Man
TTITLE4=Will You Remember Mine
TTITLE5=Pride Wins Again
TTITLE6=Night Life
TTITLE7=December Days
TTITLE8=Building Heartaches
TTITLE9=Face Of A Fighter
TTITLE10=Pages
TTITLE11=I Hope So
TTITLE12=Everything But You
TTITLE13=A Moment Isn't Very Long
TTITLE14=Some Other Time
TTITLE15=I Let My Mind Wander
TTITLE16=I Can't Find The Time
TTITLE17=I Didn't Sleep A Wink
TTITLE18=You Wouldn't Cross The Street To Say Goodbye
TTITLE19=Suffering In Silence
TTITLE20=I Feel Sorry For Him
TTITLE21=You'll Always Have Someone
TTITLE22=I Just Don't Understand
TTITLE23=Any Old Arms Won't Do
TTITLE24=Slow Down Old World
TTITLE25=Healing Hands Of Time
TTITLE26=And So Will You My Love
TTITLE27=Things To Remember
EXTD=YEAR: 2006
EXTT0=
EXTT1=
EXTT2=
EXTT3=
EXTT4=
EXTT5=
EXTT6=
EXTT7=
EXTT8=
EXTT9=
EXTT10=
EXTT11=
EXTT12=
EXTT13=
EXTT14=
EXTT15=
EXTT16=
EXTT17=
EXTT18=
EXTT19=
EXTT20=
EXTT21=
EXTT22=
EXTT23=
EXTT24=
EXTT25=
EXTT26=
EXTT27=
PLAYORDER=
